{
  "accessors": [
    {
      "bufferView": 2,
      "componentType": 5126,
      "count": 25656,
      "max": [
        6.5848937034606934,
        9.5553512573242188,
        7.7798328399658203
      ],
      "min": [
        -2.0731444358825684,
        -0.10997533798217773,
        -7.7798323631286621
      ],
      "type": "VEC3"
    },
    {
      "bufferView": 2,
      "byteOffset": 307872,
      "componentType": 5126,
      "count": 25656,
      "max": [
        0.99997097253799438,
        0.99997824430465698,
        1
      ],
      "min": [
        -0.99969089031219482,
        -0.99996918439865112,
        -1
      ],
      "type": "VEC3"
    },
    {
      "bufferView": 1,
      "componentType": 5126,
      "count": 25656,
      "max": [
        0.99353122711181641,
        0.99234539270401001
      ],
      "min": [
        0.0069764256477355957,
        0.011021792888641357
      ],
      "type": "VEC2"
    },
    {
      "bufferView": 1,
      "byteOffset": 205248,
      "componentType": 5126,
      "count": 25656,
      "max": [
        0.99353122711181641,
        0.99234539270401001
      ],
      "min": [
        0.0069764256477355957,
        0.011021792888641357
      ],
      "type": "VEC2"
    },
    {
      "bufferView": 1,
      "byteOffset": 410496,
      "componentType": 5126,
      "count": 25656,
      "max": [
        0.99353122711181641,
        0.99234539270401001
      ],
      "min": [
        0.0069764256477355957,
        0.011021792888641357
      ],
      "type": "VEC2"
    },
    {
      "bufferView": 0,
      "componentType": 5125,
      "count": 129357,
      "max": [
        25655
      ],
      "min": [
        0
      ],
      "type": "SCALAR"
    }
  ],
  "asset": {
    "extras": {
      "author": "RODX81 (https://sketchfab.com/RODX81)",
      "license": "CC-BY-4.0 (http://creativecommons.org/licenses/by/4.0/)",
      "source": "https://sketchfab.com/3d-models/xbox-controller-a7c770eab67f41a78731936f4fb2ca68",
      "title": "Xbox controller"
    },
    "generator": "Sketchfab-8.42.0",
    "version": "2.0"
  },
  "bufferViews": [
    {
      "buffer": 0,
      "byteLength": 517428,
      "byteOffset": 0,
      "name": "floatBufferViews",
      "target": 34963
    },
    {
      "buffer": 0,
      "byteLength": 615744,
      "byteOffset": 517428,
      "byteStride": 8,
      "name": "floatBufferViews",
      "target": 34962
    },
    {
      "buffer": 0,
      "byteLength": 615744,
      "byteOffset": 1133172,
      "byteStride": 12,
      "name": "floatBufferViews",
      "target": 34962
    }
  ],
  "buffers": [
    {
      "byteLength": 1748916,
      "uri": "scene.bin"
    }
  ],
  "extensionsRequired": [
    "KHR_materials_pbrSpecularGlossiness"
  ],
  "extensionsUsed": [
    "KHR_materials_pbrSpecularGlossiness"
  ],
  "images": [
    {
      "uri": "textures/material_diffuse.png"
    },
    {
      "uri": "textures/material_specularGlossiness.png"
    }
  ],
  "materials": [
    {
      "doubleSided": true,
      "emissiveFactor": [
        0,
        0,
        0
      ],
      "extensions": {
        "KHR_materials_pbrSpecularGlossiness": {
          "diffuseFactor": [
            1,
            1,
            1,
            1
          ],
          "diffuseTexture": {
            "index": 0,
            "texCoord": 0
          },
          "glossinessFactor": 1,
          "specularFactor": [
            1,
            1,
            1
          ],
          "specularGlossinessTexture": {
            "index": 1,
            "texCoord": 0
          }
        }
      },
      "name": "material"
    }
  ],
  "meshes": [
    {
      "primitives": [
        {
          "attributes": {
            "NORMAL": 1,
            "POSITION": 0,
            "TEXCOORD_0": 2,
            "TEXCOORD_1": 3,
            "TEXCOORD_2": 4
          },
          "indices": 5,
          "material": 0,
          "mode": 4
        }
      ]
    }
  ],
  "nodes": [
    {
      "children": [
        1
      ],
      "name": "RootNode (gltf orientation matrix)",
      "rotation": [
        -0.70710678118654746,
        -0,
        -0,
        0.70710678118654757
      ]
    },
    {
      "children": [
        2
      ],
      "name": "RootNode (model correction matrix)"
    },
    {
      "children": [
        3
      ],
      "name": "root"
    },
    {
      "children": [
        4
      ],
      "matrix": [
        1,
        0,
        0,
        0,
        0,
        2.2204460492503131e-16,
        1,
        0,
        0,
        -1,
        2.2204460492503131e-16,
        0,
        0,
        0,
        0,
        1
      ],
      "name": "GLTF_SceneRootNode"
    },
    {
      "children": [
        5
      ],
      "name": "root_0"
    },
    {
      "children": [
        6
      ],
      "matrix": [
        0.052972856909036636,
        0,
        0,
        0,
        0,
        0.052972856909036636,
        0,
        0,
        0,
        0,
        0.052972856909036636,
        0,
        -0.11949992179870605,
        -0.25017428398132324,
        0.41212001442909241,
        1
      ],
      "name": "node_id30_1"
    },
    {
      "mesh": 0,
      "name": ""
    }
  ],
  "samplers": [
    {
      "magFilter": 9729,
      "minFilter": 9987,
      "wrapS": 10497,
      "wrapT": 10497
    }
  ],
  "scene": 0,
  "scenes": [
    {
      "name": "OSG_Scene",
      "nodes": [
        0
      ]
    }
  ],
  "textures": [
    {
      "sampler": 0,
      "source": 0
    },
    {
      "sampler": 0,
      "source": 1
    }
  ]
}

